<svg width="216" height="43" viewBox="0 0 216 43" fill="none" xmlns="http://www.w3.org/2000/svg">
<path d="M27.625 6.01812C29.6378 6.90571 31.4481 8.19495 32.9451 9.80682C34.4421 11.4187 35.5942 13.3193 36.3308 15.3921C36.3682 15.5 36.438 15.5938 36.5307 15.6605C36.6234 15.7273 36.7345 15.7638 36.8487 15.7649L40.8935 15.7649C40.9772 15.7624 41.0592 15.7409 41.1334 15.7021C41.2076 15.6633 41.2721 15.6082 41.3219 15.5409C41.3718 15.4736 41.4057 15.3959 41.4212 15.3136C41.4367 15.2313 41.4334 15.1466 41.4114 15.0658C40.2924 11.1973 38.092 7.72872 35.0689 5.06809C32.0459 2.40746 28.326 0.66539 24.3467 0.046768C24.2032 0.0243101 24.0566 0.0332229 23.9169 0.0728936C23.7772 0.112564 23.6477 0.182052 23.5375 0.276564C23.4272 0.371076 23.3387 0.48837 23.2782 0.620362C23.2176 0.752354 23.1864 0.895903 23.1866 1.04113L23.1866 13.7296C23.1923 14.1109 23.297 14.4841 23.4904 14.8128C23.6838 15.1414 23.9592 15.4142 24.2897 15.6044C25.2618 16.1849 26.0569 17.02 26.589 18.0195C27.1212 19.0189 27.3701 20.1447 27.3091 21.2754C27.1532 22.8396 26.4102 24.2867 25.23 25.3251C24.0497 26.3634 22.5198 26.9159 20.9484 26.8713C19.377 26.8266 17.8809 26.1881 16.7615 25.0844C15.6421 23.9807 14.9826 22.4938 14.9158 20.9232C14.9196 19.836 15.2086 18.7688 15.7539 17.8282C16.2991 16.8876 17.0816 16.1066 18.0232 15.563C18.3592 15.3738 18.6395 15.0996 18.8358 14.7677C19.0322 14.4359 19.1378 14.0582 19.1418 13.6726L19.1418 1.00488C19.1419 0.86067 19.1108 0.718145 19.0509 0.586989C18.9909 0.455834 18.9034 0.339124 18.7943 0.244788C18.6853 0.150452 18.5572 0.0807032 18.4187 0.04028C18.2803 -0.000143082 18.1348 -0.0102946 17.9921 0.0105193C14.2518 0.571425 10.7307 2.1262 7.79637 4.51251C4.86208 6.89881 2.62224 10.0291 1.31074 13.5766C-0.000754608 17.124 -0.335818 20.9586 0.34054 24.6797C1.0169 28.4009 2.67988 31.8722 5.15582 34.7313C7.63177 37.5903 10.8299 39.7322 14.4162 40.9334C18.0026 42.1345 21.8456 42.3507 25.544 41.5596C29.2425 40.7684 32.6607 38.9988 35.4418 36.4356C38.2229 33.8724 40.2649 30.6096 41.3544 26.9878C41.3773 26.9066 41.3814 26.8213 41.3663 26.7384C41.3513 26.6554 41.3175 26.577 41.2675 26.5091C41.2176 26.4412 41.1528 26.3855 41.0781 26.3464C41.0034 26.3073 40.9208 26.2858 40.8365 26.2834H36.6934C36.5808 26.2827 36.4708 26.3166 36.3781 26.3806C36.2855 26.4445 36.2148 26.5353 36.1755 26.6408C35.2148 29.119 33.6571 31.3218 31.6409 33.0537C29.6246 34.7855 27.212 35.9929 24.6172 36.5686C22.0223 37.1444 19.3255 37.0708 16.766 36.3542C14.2064 35.6377 11.8633 34.3004 9.94458 32.4611C8.02585 30.6218 6.5908 28.3372 5.76678 25.8103C4.94276 23.2833 4.75525 20.592 5.22089 17.9751C5.68653 15.3583 6.79092 12.8968 8.43606 10.8092C10.0812 8.72157 12.2162 7.07231 14.6517 6.00777C14.7254 5.97681 14.8056 5.96469 14.8852 5.97251C14.9648 5.98032 15.0412 6.00782 15.1075 6.05253C15.1738 6.09723 15.2279 6.15773 15.2649 6.22858C15.302 6.29942 15.3208 6.37839 15.3198 6.45833V11.7668C15.319 11.8441 15.2998 11.9202 15.2637 11.9886C15.2277 12.0571 15.1759 12.116 15.1126 12.1604C13.2748 13.4399 11.8933 15.2726 11.1693 17.3917C10.4452 19.5108 10.4164 21.8057 11.0869 23.9423C11.7575 26.0789 13.0924 27.9457 14.8975 29.2711C16.7025 30.5964 18.8834 31.3111 21.1228 31.3111C23.3621 31.3111 25.5431 30.5964 27.3481 29.2711C29.1532 27.9457 30.4881 26.0789 31.1586 23.9423C31.8292 21.8057 31.8003 19.5108 31.0763 17.3917C30.3522 15.2726 28.9708 13.4399 27.133 12.1604C27.0697 12.116 27.0178 12.0571 26.9818 11.9886C26.9458 11.9202 26.9266 11.8441 26.9258 11.7668L26.9258 6.45833C26.924 6.37515 26.9438 6.29291 26.9832 6.21963C27.0226 6.14635 27.0803 6.08455 27.1507 6.04021C27.2211 5.99588 27.3018 5.97054 27.3849 5.96667C27.4681 5.9628 27.5508 5.98052 27.625 6.01812Z" fill="#FA8B1E"/>
<path d="M71.4764 24.3051L68.369 24.3051C68.1553 24.2947 67.9437 24.3508 67.7631 24.4656C67.593 24.6316 67.4851 24.851 67.4575 25.0871C67.2622 26.219 66.6531 27.2379 65.7485 27.9459C64.7822 28.5542 63.6522 28.8507 62.5116 28.7952C59.4043 28.7952 57.7781 27.0499 57.6331 23.5593C57.6123 22.9274 57.602 22.0056 57.602 20.7937C57.602 19.5818 57.6123 18.6807 57.6331 18.0903C57.7643 14.5997 59.3904 12.8544 62.5116 12.8544C63.6445 12.7988 64.7675 13.0877 65.7329 13.683C66.5374 14.2354 67.1123 15.1953 67.4575 16.5625C67.5014 16.7977 67.6151 17.0143 67.7838 17.184C67.9539 17.3047 68.1612 17.3616 68.369 17.3445L71.4764 17.3445C71.6504 17.3439 71.8181 17.2794 71.9477 17.1633C72.0137 17.1115 72.0671 17.0455 72.1039 16.9702C72.1407 16.8948 72.1599 16.8121 72.1601 16.7282V16.6609C72.1336 15.2838 71.7052 13.9445 70.9275 12.8078C70.0876 11.6213 68.9397 10.6865 67.6077 10.1043C66.0176 9.41379 64.2966 9.0763 62.5634 9.11515C59.6149 9.11515 57.312 9.89026 55.6547 11.4405C53.9974 12.9907 53.1135 15.1538 53.0031 17.9297C53.0031 18.5357 52.9668 19.5145 52.9668 20.8559C52.9668 22.1972 52.9668 23.1346 53.0031 23.7198C53.1135 26.5165 53.9853 28.6847 55.6184 30.2246C57.2515 31.7645 59.5665 32.5344 62.5634 32.5344C64.2966 32.5733 66.0176 32.2358 67.6077 31.5453C68.9397 30.9631 70.0876 30.0283 70.9275 28.8418C71.7052 27.7051 72.1336 26.3658 72.1601 24.9887C72.1735 24.8993 72.1644 24.808 72.1337 24.723C72.1029 24.638 72.0515 24.562 71.984 24.5019C71.8462 24.3738 71.6646 24.3033 71.4764 24.3051V24.3051Z" fill="#FA8B1E"/>
<path d="M85.3967 14.9674C84.3974 14.9261 83.402 15.1163 82.4883 15.5233C81.5747 15.9303 80.7675 16.5429 80.1297 17.3134V9.89718C80.1348 9.79279 80.1185 9.68846 80.082 9.59053C80.0455 9.4926 79.9895 9.40312 79.9174 9.32749C79.8423 9.2546 79.7529 9.19809 79.6548 9.16154C79.5568 9.12499 79.4522 9.10919 79.3477 9.11515H76.4527C76.3508 9.11222 76.2495 9.12947 76.1544 9.16591C76.0592 9.20236 75.9723 9.25727 75.8985 9.32749C75.8223 9.40085 75.7626 9.48959 75.7233 9.58781C75.684 9.68603 75.666 9.79149 75.6706 9.89718V31.4469C75.6706 31.5493 75.6909 31.6508 75.7303 31.7454C75.7696 31.8399 75.8273 31.9258 75.9 31.998C75.9727 32.0702 76.0589 32.1273 76.1538 32.1661C76.2486 32.2048 76.3502 32.2244 76.4527 32.2237H79.3477C79.4536 32.2297 79.5594 32.2124 79.6578 32.173C79.7563 32.1336 79.8449 32.0732 79.9174 31.9958C80.0574 31.8478 80.1337 31.6506 80.1297 31.4469V22.4821C80.0746 21.3988 80.4465 20.337 81.1655 19.5249C81.5179 19.1618 81.9436 18.878 82.4142 18.6923C82.8848 18.5065 83.3895 18.4231 83.8948 18.4476C84.3927 18.4155 84.8914 18.494 85.3553 18.6775C85.8192 18.8611 86.2366 19.1452 86.5775 19.5093C87.2436 20.3515 87.5739 21.4106 87.5046 22.4821V31.4469C87.5046 31.5493 87.5248 31.6508 87.5642 31.7454C87.6036 31.8399 87.6613 31.9258 87.7339 31.998C87.8066 32.0702 87.8929 32.1273 87.9877 32.1661C88.0826 32.2048 88.1842 32.2244 88.2866 32.2237H91.2127C91.3186 32.2297 91.4244 32.2124 91.5229 32.173C91.6213 32.1336 91.7099 32.0732 91.7824 31.9958C91.9132 31.8441 91.9784 31.6466 91.9637 31.4469V22.2904C91.9637 20.0324 91.3681 18.2474 90.1769 16.9354C89.5704 16.2805 88.8288 15.7653 88.0034 15.4255C87.178 15.0857 86.2885 14.9293 85.3967 14.9674V14.9674Z" fill="#FA8B1E"/>
<path d="M103.389 14.9676C101.003 14.9676 99.104 15.6737 97.6919 17.0858C96.2797 18.4979 95.515 20.4383 95.3976 22.907L95.3613 23.72L95.3976 24.5331C95.4804 27.0708 96.2331 29.0388 97.6556 30.4372C99.0781 31.8355 100.993 32.5347 103.399 32.5347C104.773 32.5643 106.136 32.2975 107.397 31.7526C108.402 31.3375 109.306 30.7124 110.049 29.9193C110.564 29.4342 110.892 28.7834 110.976 28.0807C110.98 27.9956 110.962 27.9108 110.925 27.834C110.888 27.7572 110.832 27.6908 110.764 27.6405C110.62 27.5165 110.435 27.4517 110.246 27.4593H107.449C107.271 27.4533 107.094 27.4869 106.931 27.5577C106.75 27.6828 106.591 27.8367 106.46 28.0134C106.101 28.495 105.631 28.8826 105.09 29.1432C104.549 29.4039 103.953 29.5297 103.352 29.5101C102.859 29.5305 102.367 29.4298 101.921 29.2168C101.476 29.0037 101.088 28.6848 100.794 28.2879C100.156 27.4141 99.8095 26.3611 99.8049 25.2789V25.02H110.608C110.716 25.0248 110.824 25.0071 110.925 24.9678C111.026 24.9286 111.117 24.8687 111.193 24.7921C111.267 24.7201 111.325 24.6338 111.365 24.5386C111.404 24.4433 111.423 24.341 111.421 24.2379V23.5595C111.421 20.9562 110.722 18.8743 109.324 17.3137C107.926 15.7531 105.947 14.971 103.389 14.9676ZM107.014 22.2907H99.8101V22.1923C99.7534 21.0784 100.087 19.9796 100.753 19.0849C101.069 18.6961 101.473 18.3875 101.931 18.1842C102.389 17.9808 102.888 17.8884 103.389 17.9144C103.891 17.8908 104.392 17.9843 104.852 18.1874C105.313 18.3905 105.719 18.6977 106.04 19.0849C106.716 19.9755 107.055 21.0759 106.998 22.1923L107.014 22.2907Z" fill="#FA8B1E"/>
<path d="M134.027 14.9673C132.94 14.9593 131.869 15.2341 130.92 15.7649C130.012 16.2471 129.249 16.962 128.708 17.8365C127.748 15.9099 126.067 14.9449 123.664 14.9414C122.757 14.9014 121.853 15.0822 121.032 15.4683C120.21 15.8544 119.494 16.4343 118.946 17.158V16.0497C118.948 15.9466 118.929 15.8441 118.89 15.7488C118.851 15.6534 118.792 15.5672 118.718 15.4956C118.646 15.4218 118.56 15.3636 118.464 15.3244C118.369 15.2852 118.267 15.2659 118.164 15.2677H115.631C115.528 15.2659 115.426 15.2852 115.331 15.3244C115.235 15.3636 115.149 15.4218 115.077 15.4956C115.004 15.5679 114.946 15.6542 114.907 15.7495C114.868 15.8447 114.848 15.9468 114.849 16.0497V31.4468C114.848 31.549 114.867 31.6505 114.906 31.745C114.945 31.8394 115.004 31.9248 115.077 31.9958C115.148 32.0703 115.235 32.129 115.33 32.1682C115.426 32.2075 115.528 32.2264 115.631 32.2236H118.376C118.479 32.2264 118.582 32.2075 118.677 32.1682C118.773 32.129 118.859 32.0703 118.93 31.9958C119.004 31.9248 119.062 31.8394 119.101 31.745C119.14 31.6505 119.16 31.549 119.158 31.4468V22.3525C119.158 21.0112 119.453 20.022 120.054 19.3953C120.331 19.0901 120.671 18.8476 121.05 18.6841C121.428 18.5206 121.838 18.44 122.25 18.4476C122.67 18.4358 123.088 18.5122 123.477 18.6719C123.866 18.8315 124.217 19.0709 124.508 19.3746C125.104 19.9961 125.404 20.9853 125.404 22.3525V31.4468C125.405 31.5436 125.425 31.6393 125.463 31.7283C125.501 31.8172 125.557 31.8976 125.627 31.9647C125.698 32.0392 125.784 32.0979 125.88 32.1372C125.975 32.1764 126.078 32.1953 126.181 32.1926H128.848C128.95 32.1949 129.052 32.1758 129.147 32.1366C129.241 32.0973 129.326 32.0388 129.397 31.9647C129.472 31.8945 129.53 31.8092 129.57 31.7146C129.609 31.62 129.628 31.5181 129.625 31.4157V22.3525C129.625 21.0112 129.925 20.022 130.521 19.3953C130.793 19.0924 131.128 18.8512 131.501 18.6878C131.874 18.5243 132.278 18.4424 132.686 18.4476C133.112 18.4296 133.537 18.5031 133.933 18.6629C134.329 18.8228 134.686 19.0655 134.98 19.3746C135.555 19.9961 135.84 20.9853 135.84 22.3525V31.4468C135.838 31.549 135.857 31.6505 135.896 31.745C135.936 31.8394 135.994 31.9248 136.067 31.9958C136.139 32.0703 136.225 32.129 136.32 32.1682C136.416 32.2075 136.518 32.2264 136.622 32.2236H139.289C139.395 32.2289 139.5 32.2113 139.599 32.172C139.697 32.1326 139.785 32.0725 139.858 31.9958C139.998 31.8477 140.075 31.6506 140.071 31.4468V22.1247C140.071 19.8045 139.506 18.0367 138.377 16.8214C137.827 16.2189 137.154 15.7415 136.404 15.4216C135.653 15.1018 134.843 14.9468 134.027 14.9673V14.9673Z" fill="#FA8B1E"/>
<path d="M151.267 14.9674C149.928 14.9294 148.597 15.1858 147.368 15.7184C146.443 16.1074 145.632 16.7216 145.006 17.5051C144.566 18.0325 144.289 18.6768 144.208 19.3592C144.205 19.4556 144.223 19.5516 144.259 19.6408C144.296 19.7301 144.351 19.8106 144.421 19.8771C144.49 19.9425 144.571 19.9935 144.66 20.0273C144.749 20.0611 144.844 20.0769 144.939 20.0739H147.445C147.558 20.0704 147.667 20.03 147.755 19.959C147.843 19.8879 147.905 19.79 147.932 19.6803C148.02 19.5922 148.196 19.411 148.45 19.1261C148.763 18.8225 149.111 18.5565 149.486 18.3337C150.017 18.0388 150.619 17.8972 151.226 17.9246C152.262 17.9246 153.059 18.1628 153.536 18.6393C153.792 18.9317 153.988 19.2726 154.11 19.6417C154.233 20.0108 154.281 20.4008 154.25 20.7886V21.4722L149.796 22.1196C148.03 22.3217 146.341 22.9587 144.882 23.9736C143.957 24.6597 143.337 25.6792 143.152 26.8155C142.967 27.9518 143.233 29.1153 143.892 30.0589C144.447 30.8398 145.197 31.4613 146.068 31.8612C147.019 32.313 148.06 32.5415 149.113 32.5293C150.239 32.5659 151.359 32.337 152.381 31.8612C153.192 31.4767 153.892 30.89 154.411 30.1573V31.4469C154.411 31.5493 154.431 31.6508 154.471 31.7454C154.51 31.84 154.568 31.9258 154.64 31.998C154.713 32.0702 154.799 32.1274 154.894 32.1661C154.989 32.2048 155.091 32.2244 155.193 32.2237H157.829C157.935 32.2297 158.041 32.2124 158.139 32.173C158.238 32.1337 158.326 32.0732 158.399 31.9958C158.539 31.8478 158.615 31.6506 158.611 31.4469V21.2132C158.646 20.3793 158.508 19.5472 158.206 18.7691C157.904 17.9911 157.444 17.2839 156.855 16.692C155.688 15.5423 153.826 14.9674 151.267 14.9674ZM154.292 24.8592C154.292 26.3577 153.914 27.4953 153.158 28.2722C152.777 28.66 152.32 28.9644 151.815 29.1659C151.31 29.3674 150.769 29.4616 150.226 29.4426C149.479 29.466 148.742 29.2619 148.113 28.8574C147.837 28.6875 147.61 28.4477 147.455 28.1623C147.301 27.8768 147.224 27.5557 147.233 27.2312C147.242 26.9055 147.336 26.5879 147.505 26.3092C147.674 26.0306 147.912 25.8004 148.196 25.6413C149.065 25.1252 150.035 24.8019 151.039 24.6935L154.292 24.1756V24.8592Z" fill="#FA8B1E"/>
<path d="M172.444 23.5903L177.649 16.5624C177.778 16.3948 177.848 16.1888 177.846 15.9772C177.844 15.8884 177.825 15.8008 177.788 15.7198C177.752 15.6388 177.699 15.5661 177.634 15.5059C177.567 15.4365 177.486 15.3818 177.397 15.3452C177.308 15.3087 177.212 15.2911 177.116 15.2936H174.412C174.296 15.2841 174.18 15.3027 174.073 15.3478C173.965 15.3929 173.87 15.4631 173.796 15.5525L173.537 15.8477L169.86 20.7263L166.183 15.8477C166.074 15.6978 165.949 15.5606 165.81 15.4386C165.659 15.3321 165.476 15.2809 165.292 15.2936H162.459C162.363 15.2904 162.267 15.3077 162.178 15.3443C162.088 15.3809 162.008 15.436 161.941 15.5059C161.872 15.5728 161.817 15.6533 161.781 15.7425C161.744 15.8317 161.727 15.9275 161.729 16.0238C161.731 16.2253 161.8 16.4203 161.926 16.578L167.063 23.5385L161.579 30.9289C161.437 31.0793 161.356 31.2766 161.351 31.483C161.348 31.5795 161.365 31.6755 161.402 31.7647C161.438 31.854 161.493 31.9345 161.563 32.0009C161.63 32.0711 161.71 32.1264 161.799 32.163C161.889 32.1996 161.985 32.2168 162.081 32.2133H164.94C165.119 32.2104 165.294 32.1612 165.448 32.0704C165.603 31.9796 165.731 31.8504 165.82 31.6954L169.788 26.5164L173.692 31.6954C173.781 31.8497 173.909 31.9784 174.062 32.0691C174.215 32.1599 174.39 32.2095 174.568 32.2133H177.53C177.719 32.2106 177.899 32.1344 178.032 32.001C178.166 31.8675 178.242 31.6873 178.245 31.4986C178.24 31.2921 178.158 31.0948 178.017 30.9444L172.444 23.5903Z" fill="#FA8B1E"/>
<path d="M193.916 16.9457C192.5 15.6199 190.548 14.957 188.058 14.957C185.562 14.957 183.615 15.6199 182.201 16.9457C181.484 17.6439 180.914 18.4781 180.524 19.3994C180.133 20.3207 179.931 21.3105 179.927 22.3111L179.891 23.7405L179.927 25.1751C180.034 27.4469 180.782 29.2405 182.17 30.556C183.558 31.8715 185.521 32.5275 188.058 32.524C190.596 32.524 192.559 31.868 193.947 30.556C195.335 29.244 196.082 27.4504 196.189 25.1751C196.189 24.9109 196.22 24.4345 196.22 23.7405C196.22 23.0465 196.22 22.57 196.189 22.3111C196.186 21.3105 195.983 20.3207 195.593 19.3994C195.203 18.4781 194.632 17.6439 193.916 16.9457V16.9457ZM191.766 25.0093C191.788 26.1635 191.424 27.2918 190.731 28.2151C190.018 28.9129 189.061 29.3037 188.064 29.3037C187.066 29.3037 186.109 28.9129 185.396 28.2151C184.699 27.2941 184.334 26.1642 184.361 25.0093L184.329 23.7405L184.361 22.4716C184.334 21.3183 184.699 20.1901 185.396 19.271C186.107 18.5708 187.065 18.1783 188.064 18.1783C189.062 18.1783 190.02 18.5708 190.731 19.271C191.422 20.1929 191.787 21.3192 191.766 22.4716C191.766 22.6892 191.798 23.1138 191.798 23.7405C191.798 24.3671 191.787 24.8022 191.766 25.0197V25.0093Z" fill="#FA8B1E"/>
<path d="M214.244 16.9458C213.645 16.2894 212.909 15.7728 212.089 15.4326C211.268 15.0925 210.382 14.9372 209.495 14.9778C207.154 14.9778 205.343 15.7926 204.062 17.4222V16.086C204.063 15.9831 204.044 15.881 204.004 15.7858C203.965 15.6906 203.907 15.6042 203.834 15.5319C203.762 15.4582 203.676 15.3999 203.581 15.3607C203.485 15.3215 203.383 15.3022 203.28 15.304H200.613C200.51 15.304 200.409 15.3243 200.314 15.3636C200.22 15.403 200.134 15.4607 200.062 15.5334C199.989 15.6061 199.932 15.6923 199.894 15.7872C199.855 15.882 199.835 15.9836 199.836 16.086V31.4469C199.836 31.6529 199.918 31.8505 200.064 31.9962C200.209 32.1419 200.407 32.2237 200.613 32.2237H203.477C203.583 32.2297 203.688 32.2124 203.787 32.173C203.885 32.1336 203.974 32.0732 204.046 31.9958C204.187 31.8478 204.263 31.6506 204.259 31.4469V22.4821C204.197 21.406 204.551 20.3474 205.248 19.5249C205.599 19.1609 206.023 18.8764 206.493 18.6905C206.963 18.5047 207.467 18.4219 207.972 18.4476C208.47 18.4155 208.969 18.494 209.433 18.6775C209.896 18.8611 210.314 19.1452 210.655 19.5093C211.319 20.3526 211.649 21.4109 211.582 22.4821V31.4469C211.58 31.5491 211.6 31.6506 211.639 31.745C211.678 31.8395 211.736 31.9248 211.81 31.9958C211.881 32.0703 211.967 32.1291 212.063 32.1683C212.158 32.2076 212.261 32.2264 212.364 32.2237H215.223C215.328 32.2296 215.433 32.2123 215.53 32.1729C215.628 32.1335 215.716 32.073 215.787 31.9958C215.857 31.9232 215.913 31.8372 215.949 31.7429C215.985 31.6486 216.003 31.5479 216 31.4469V22.2905C216 20.0324 215.414 18.2509 214.244 16.9458Z" fill="#FA8B1E"/>
</svg>
